<svg xmlns="http://www.w3.org/2000/svg" version="1.1" xmlns:xlink="http://www.w3.org/1999/xlink" xmlns:svgjs="http://svgjs.dev/svgjs" width="2000" height="232" viewBox="0 0 2000 232"><g transform="matrix(1,0,0,1,-1.2121212121212466,-1.0330523174212658)"><svg viewBox="0 0 396 46" data-background-color="#ffffff" preserveAspectRatio="xMidYMid meet" height="232" width="2000" xmlns="http://www.w3.org/2000/svg" xmlns:xlink="http://www.w3.org/1999/xlink"><g id="tight-bounds" transform="matrix(1,0,0,1,0.2400000000000091,0.20482933879904408)"><svg viewBox="0 0 395.52 45.59034132240193" height="45.59034132240193" width="395.52"><g><svg viewBox="0 0 472.0759356110426 54.414702251718424" height="45.59034132240193" width="395.52"><g><rect width="3.550777138229154" height="39.57074946669827" x="63.70993036226595" y="7.421976392510079" fill="#ffffff" opacity="1" stroke-width="0" stroke="transparent" fill-opacity="1" class="rect-qz-0" data-fill-palette-color="primary" rx="1%" id="qz-0" data-palette-color="#c56e33"></rect></g><g transform="matrix(1,0,0,1,76.55593561104263,7.520411092675992)"><svg viewBox="0 0 395.52 39.37388006636644" height="39.37388006636644" width="395.52"><g id="textblocktransform"><svg viewBox="0 0 395.52 39.37388006636644" height="39.37388006636644" width="395.52" id="textblock"><g><svg viewBox="0 0 395.52 39.37388006636644" height="39.37388006636644" width="395.52"><g transform="matrix(1,0,0,1,0,0)"><svg width="395.52" viewBox="4.15 -37.05 415.02000000000004 42" height="39.37388006636644" data-palette-color="#c56e33"><g class="wordmark-text-0" data-fill-palette-color="primary" id="text-0"><path d="M18.1-18.35Q21.95-17.75 23.98-15.48 26-13.2 26-9.4L26-9.4Q26-4.3 22.5-2.15 19 0 12 0L12 0 7.2 0Q6.15 0 5.5-0.6 4.85-1.2 4.8-2.25L4.8-2.25 4.8-28.85Q4.8-30.05 4.65-31.63 4.5-33.2 4.15-34.2L4.15-34.2Q6.25-35.3 11.3-35.3L11.3-35.3Q17.75-35.3 21-33.27 24.25-31.25 24.25-26.8L24.25-26.8Q24.25-23.7 22.65-21.48 21.05-19.25 18.1-18.35L18.1-18.35ZM11.1-33.5Q9.35-33.5 8.85-33.4L8.85-33.4 8.85-19.1 13.05-19.1Q16.15-19.05 18.07-21 20-22.95 20-26.55L20-26.55Q20-30.15 17.93-31.83 15.85-33.5 11.1-33.5L11.1-33.5ZM12.15-1.85Q16.9-1.85 19.28-3.63 21.65-5.4 21.65-9.35L21.65-9.35Q21.65-13.75 19.23-15.5 16.8-17.25 12.15-17.25L12.15-17.25 8.85-17.25 8.85-1.85 12.15-1.85ZM51.3-6.45Q52.05-6.2 52.05-5.3L52.05-5.3Q52.05-4.8 51.75-3.95L51.75-3.95Q50.8-1.75 48.42-0.55 46.05 0.65 42.85 0.65L42.85 0.65Q37.35 0.65 34.25-2.78 31.15-6.2 31.15-12.55L31.15-12.55Q31.15-18.85 34.22-22.45 37.3-26.05 43.05-26.05L43.05-26.05Q47.2-26.05 49.7-24.18 52.2-22.3 52.2-18.85L52.2-18.85Q52.2-15.15 49.2-13.2 46.2-11.25 40.85-11.25L40.85-11.25Q37.9-11.25 35.45-11.6L35.45-11.6Q35.75-6.55 37.97-4.33 40.2-2.1 43.8-2.1L43.8-2.1Q46.55-2.1 48.55-3.23 50.55-4.35 51.3-6.45L51.3-6.45ZM42.9-24.25Q39.5-24.25 37.47-21.43 35.45-18.6 35.4-13.3L35.4-13.3Q37.8-13.1 39.3-13.05L39.3-13.05Q43.3-13.05 45.62-14.48 47.95-15.9 47.95-19.35L47.95-19.35Q47.95-22 46.5-23.13 45.05-24.25 42.9-24.25L42.9-24.25ZM63.25 0.5Q61 0.5 59.75-0.95 58.5-2.4 58.5-5.05L58.5-5.05 58.5-34.3Q58.5-35.35 59.15-35.93 59.8-36.5 60.85-36.5L60.85-36.5Q62.1-36.5 63.15-35.6L63.15-35.6Q62.75-34.3 62.62-32.25 62.5-30.2 62.5-25.85L62.5-25.85 62.5-5.25Q62.5-3.95 62.97-3.28 63.45-2.6 64.4-2.6L64.4-2.6Q64.95-2.6 65.47-2.88 66-3.15 66.25-3.65L66.25-3.65Q66.8-2.9 66.8-2.1L66.8-2.1Q66.8-0.95 65.77-0.23 64.75 0.5 63.25 0.5L63.25 0.5ZM76.74 0.5Q74.49 0.5 73.24-0.95 71.99-2.4 71.99-5.05L71.99-5.05 71.99-34.3Q71.99-35.35 72.64-35.93 73.29-36.5 74.34-36.5L74.34-36.5Q75.59-36.5 76.64-35.6L76.64-35.6Q76.24-34.3 76.12-32.25 75.99-30.2 75.99-25.85L75.99-25.85 75.99-5.25Q75.99-3.95 76.47-3.28 76.94-2.6 77.89-2.6L77.89-2.6Q78.44-2.6 78.97-2.88 79.49-3.15 79.74-3.65L79.74-3.65Q80.29-2.9 80.29-2.1L80.29-2.1Q80.29-0.95 79.27-0.23 78.24 0.5 76.74 0.5L76.74 0.5ZM87.74 4.95Q86.94 4.85 86.24 4.05L86.24 4.05Q87.79 2.25 87.79 0.65L87.79 0.65Q87.79-0.55 87.17-1.13 86.54-1.7 85.49-2.05L85.49-2.05Q85.49-3.05 86.27-3.9 87.04-4.75 88.29-4.75L88.29-4.75Q89.49-4.75 90.32-3.93 91.14-3.1 91.14-1.3L91.14-1.3Q91.14 2 87.74 4.95L87.74 4.95Z" fill="#ffffff" data-fill-palette-color="primary"></path><path d="M120.19-18.35Q124.04-17.75 126.06-15.48 128.09-13.2 128.09-9.4L128.09-9.4Q128.09-4.3 124.59-2.15 121.09 0 114.09 0L114.09 0 109.29 0Q108.24 0 107.59-0.6 106.94-1.2 106.89-2.25L106.89-2.25 106.89-28.85Q106.89-30.05 106.74-31.63 106.59-33.2 106.24-34.2L106.24-34.2Q108.34-35.3 113.39-35.3L113.39-35.3Q119.84-35.3 123.09-33.27 126.34-31.25 126.34-26.8L126.34-26.8Q126.34-23.7 124.74-21.48 123.14-19.25 120.19-18.35L120.19-18.35ZM113.19-33.5Q111.44-33.5 110.94-33.4L110.94-33.4 110.94-19.1 115.14-19.1Q118.24-19.05 120.16-21 122.09-22.95 122.09-26.55L122.09-26.55Q122.09-30.15 120.01-31.83 117.94-33.5 113.19-33.5L113.19-33.5ZM114.24-1.85Q118.99-1.85 121.36-3.63 123.74-5.4 123.74-9.35L123.74-9.35Q123.74-13.75 121.31-15.5 118.89-17.25 114.24-17.25L114.24-17.25 110.94-17.25 110.94-1.85 114.24-1.85ZM144.69 0.65Q139.29 0.65 136.26-2.88 133.24-6.4 133.24-12.7L133.24-12.7Q133.24-19 136.26-22.53 139.29-26.05 144.69-26.05L144.69-26.05Q150.14-26.05 153.16-22.53 156.19-19 156.19-12.7L156.19-12.7Q156.19-6.4 153.16-2.88 150.14 0.65 144.69 0.65L144.69 0.65ZM144.69-1.15Q148.19-1.15 150.04-4.13 151.89-7.1 151.89-12.7L151.89-12.7Q151.89-18.3 150.04-21.25 148.19-24.2 144.69-24.2L144.69-24.2Q141.19-24.2 139.34-21.25 137.49-18.3 137.49-12.7L137.49-12.7Q137.49-7.1 139.34-4.13 141.19-1.15 144.69-1.15L144.69-1.15ZM172.03 0.65Q166.63 0.65 163.61-2.88 160.58-6.4 160.58-12.7L160.58-12.7Q160.58-19 163.61-22.53 166.63-26.05 172.03-26.05L172.03-26.05Q177.48-26.05 180.51-22.53 183.53-19 183.53-12.7L183.53-12.7Q183.53-6.4 180.51-2.88 177.48 0.65 172.03 0.65L172.03 0.65ZM172.03-1.15Q175.53-1.15 177.38-4.13 179.23-7.1 179.23-12.7L179.23-12.7Q179.23-18.3 177.38-21.25 175.53-24.2 172.03-24.2L172.03-24.2Q168.53-24.2 166.68-21.25 164.83-18.3 164.83-12.7L164.83-12.7Q164.83-7.1 166.68-4.13 168.53-1.15 172.03-1.15L172.03-1.15ZM211.08-3.5Q211.63-2.9 211.63-2.05L211.63-2.05Q211.63-0.95 210.63-0.2 209.63 0.55 208.28 0.55L208.28 0.55Q207.03 0.55 206.01-0.2 204.98-0.95 204.38-2.35L204.38-2.35 200.08-10.85Q197.23-9.8 193.78-8.95L193.78-8.95Q193.78-4.4 193.88-3 193.98-1.6 194.48-0.35L194.48-0.35Q193.98 0.05 193.45 0.3 192.93 0.55 192.08 0.55L192.08 0.55Q190.83 0.55 190.36-0.08 189.88-0.7 189.88-1.85L189.88-1.85 189.83-34.3Q189.83-35.35 190.45-35.93 191.08-36.5 192.13-36.5L192.13-36.5Q193.53-36.5 194.43-35.6L194.43-35.6Q194.08-33.9 193.98-32.55 193.88-31.2 193.83-29.1L193.83-29.1 193.78-27.75 193.73-18.6Q194.88-22 197.48-24.03 200.08-26.05 203.63-26.05L203.63-26.05Q206.58-26.05 208.2-24.5 209.83-22.95 209.83-20.35L209.83-20.35Q209.83-17.5 207.88-15.35 205.93-13.2 202.88-11.8L202.88-11.8Q203.73-11.45 204.73-9.85L204.73-9.85 207.68-4.55Q208.28-3.6 208.66-3.23 209.03-2.85 209.68-2.85L209.68-2.85Q210.53-2.85 211.08-3.5L211.08-3.5ZM193.78-10.75Q199.13-12.3 202.45-14.48 205.78-16.65 205.78-20.1L205.78-20.1Q205.78-21.95 204.83-22.83 203.88-23.7 202.28-23.7L202.28-23.7Q199.78-23.7 197.86-22.03 195.93-20.35 194.86-17.43 193.78-14.5 193.78-10.75L193.78-10.75Z" fill="#ffffff" data-fill-palette-color="secondary"></path><path d="M262.63-27.45Q260.68-24.5 257.83-21.75L257.83-21.75Q258.63-18.65 258.63-15.95L258.63-15.95Q258.63-11.1 256.4-7.3 254.18-3.5 250.33-1.38 246.48 0.75 241.73 0.75L241.73 0.75Q236.88 0.75 233.23-1.3 229.58-3.35 227.63-6.8 225.68-10.25 225.68-14.45L225.68-14.45Q225.68-17.85 227.1-20.5 228.53-23.15 231.1-24.65 233.68-26.15 236.98-26.15L236.98-26.15Q240.83-26.15 242.9-24.08 244.98-22 244.98-19L244.98-19Q244.98-14.8 240.43-11.4L240.43-11.4Q243.33-13.15 247.05-16.23 250.78-19.3 254.13-22.75L254.13-22.75Q252.38-27.05 248.85-29.73 245.33-32.4 240.98-32.2L240.98-32.2Q240.98-33.6 241.73-34.33 242.48-35.05 244.28-35.05L244.28-35.05Q248.13-35.05 251.35-32.33 254.58-29.6 256.53-25.3L256.53-25.3Q259.53-28.7 261.28-31.6L261.28-31.6Q262.08-31.6 262.78-31.08 263.48-30.55 263.48-29.6L263.48-29.6Q263.48-28.65 262.63-27.45L262.63-27.45ZM255.58-15.7Q255.58-17.45 255.18-19.35L255.18-19.35Q250.68-15.5 245.33-12.5 239.98-9.5 235.48-8.15L235.48-8.15 235.08-9.65Q238.38-11.9 239.98-13.9 241.58-15.9 241.58-18.6L241.58-18.6Q241.58-21 240.38-22.53 239.18-24.05 236.88-24.05L236.88-24.05Q235.03-24.05 233.48-22.98 231.93-21.9 231-19.8 230.08-17.7 230.08-14.8L230.08-14.8Q230.08-11.25 231.5-8.18 232.93-5.1 235.63-3.23 238.33-1.35 242.08-1.35L242.08-1.35Q245.68-1.35 248.78-3.1 251.88-4.85 253.73-8.13 255.58-11.4 255.58-15.7L255.58-15.7Z" fill="#ffffff" data-fill-palette-color="primary"></path><path d="M290.63 0.65Q284.33 0.65 280.85-4 277.38-8.65 277.38-17.3L277.38-17.3Q277.38-26 280.93-30.65 284.48-35.3 290.88-35.3L290.88-35.3Q293.53-35.3 295.8-34.63 298.08-33.95 299.45-32.77 300.83-31.6 300.83-30.25L300.83-30.25Q300.83-29.3 299.93-28.6 299.03-27.9 297.58-28.05L297.58-28.05Q297.18-30.65 295.45-32.05 293.73-33.45 290.93-33.45L290.93-33.45Q286.43-33.45 284.13-29.38 281.83-25.3 281.83-17.3L281.83-17.3Q281.83-9.35 284.13-5.28 286.43-1.2 290.83-1.2L290.83-1.2Q293.63-1.2 295.73-2.9 297.83-4.6 298.43-7.65L298.43-7.65 299.03-7.7Q300.18-7.7 300.98-7.18 301.78-6.65 301.78-5.65L301.78-5.65Q301.78-4 300.2-2.55 298.63-1.1 296.05-0.23 293.48 0.65 290.63 0.65L290.63 0.65ZM317.88 0.65Q312.48 0.65 309.45-2.88 306.43-6.4 306.43-12.7L306.43-12.7Q306.43-19 309.45-22.53 312.48-26.05 317.88-26.05L317.88-26.05Q323.33-26.05 326.35-22.53 329.38-19 329.38-12.7L329.38-12.7Q329.38-6.4 326.35-2.88 323.33 0.65 317.88 0.65L317.88 0.65ZM317.88-1.15Q321.38-1.15 323.23-4.13 325.08-7.1 325.08-12.7L325.08-12.7Q325.08-18.3 323.23-21.25 321.38-24.2 317.88-24.2L317.88-24.2Q314.38-24.2 312.53-21.25 310.68-18.3 310.68-12.7L310.68-12.7Q310.68-7.1 312.53-4.13 314.38-1.15 317.88-1.15L317.88-1.15ZM344.87-37.05Q347.92-37.05 349.72-35.93 351.52-34.8 351.52-32.8L351.52-32.8Q351.52-31.3 350.62-30.43 349.72-29.55 348.62-29.55L348.62-29.55Q347.47-29.55 347.02-30.05L347.02-30.05Q347.97-31.3 347.97-32.7L347.97-32.7Q347.97-35.35 344.77-35.35L344.77-35.35Q342.12-35.35 341.32-33.2 340.52-31.05 340.52-27.15L340.52-27.15 340.52-25.35 343.62-25.35Q344.42-25.35 345.67-25.4 346.92-25.45 347.72-25.5L347.72-25.5 347.67-24.4Q347.62-23.9 347.3-23.58 346.97-23.25 346.52-23.25L346.52-23.25 340.52-23.25 340.52-5.7Q340.52-2.1 341.12-0.35L341.12-0.35Q340.12 0.55 338.87 0.55L338.87 0.55Q337.87 0.55 337.22-0.05 336.57-0.65 336.57-1.65L336.57-1.65 336.52-23.25 335.77-23.25Q333.72-23.25 332.77-23.1L332.77-23.1 332.82-24.25Q332.87-24.8 333.17-25.08 333.47-25.35 333.97-25.35L333.97-25.35 336.52-25.35 336.52-27.8Q336.52-37.05 344.87-37.05L344.87-37.05ZM364.27-37.05Q367.32-37.05 369.12-35.93 370.92-34.8 370.92-32.8L370.92-32.8Q370.92-31.3 370.02-30.43 369.12-29.55 368.02-29.55L368.02-29.55Q366.87-29.55 366.42-30.05L366.42-30.05Q367.37-31.3 367.37-32.7L367.37-32.7Q367.37-35.35 364.17-35.35L364.17-35.35Q361.52-35.35 360.72-33.2 359.92-31.05 359.92-27.15L359.92-27.15 359.92-25.35 363.02-25.35Q363.82-25.35 365.07-25.4 366.32-25.45 367.12-25.5L367.12-25.5 367.07-24.4Q367.02-23.9 366.7-23.58 366.37-23.25 365.92-23.25L365.92-23.25 359.92-23.25 359.92-5.7Q359.92-2.1 360.52-0.35L360.52-0.35Q359.52 0.55 358.27 0.55L358.27 0.55Q357.27 0.55 356.62-0.05 355.97-0.65 355.97-1.65L355.97-1.65 355.92-23.25 355.17-23.25Q353.12-23.25 352.17-23.1L352.17-23.1 352.22-24.25Q352.27-24.8 352.57-25.08 352.87-25.35 353.37-25.35L353.37-25.35 355.92-25.35 355.92-27.8Q355.92-37.05 364.27-37.05L364.27-37.05ZM392.72-6.45Q393.47-6.2 393.47-5.3L393.47-5.3Q393.47-4.8 393.17-3.95L393.17-3.95Q392.22-1.75 389.84-0.55 387.47 0.65 384.27 0.65L384.27 0.65Q378.77 0.65 375.67-2.78 372.57-6.2 372.57-12.55L372.57-12.55Q372.57-18.85 375.64-22.45 378.72-26.05 384.47-26.05L384.47-26.05Q388.62-26.05 391.12-24.18 393.62-22.3 393.62-18.85L393.62-18.85Q393.62-15.15 390.62-13.2 387.62-11.25 382.27-11.25L382.27-11.25Q379.32-11.25 376.87-11.6L376.87-11.6Q377.17-6.55 379.39-4.33 381.62-2.1 385.22-2.1L385.22-2.1Q387.97-2.1 389.97-3.23 391.97-4.35 392.72-6.45L392.72-6.45ZM384.32-24.25Q380.92-24.25 378.89-21.43 376.87-18.6 376.82-13.3L376.82-13.3Q379.22-13.1 380.72-13.05L380.72-13.05Q384.72-13.05 387.04-14.48 389.37-15.9 389.37-19.35L389.37-19.35Q389.37-22 387.92-23.13 386.47-24.25 384.32-24.25L384.32-24.25ZM418.27-6.45Q419.02-6.2 419.02-5.3L419.02-5.3Q419.02-4.8 418.72-3.95L418.72-3.95Q417.77-1.75 415.39-0.55 413.02 0.65 409.82 0.65L409.82 0.65Q404.32 0.65 401.22-2.78 398.12-6.2 398.12-12.55L398.12-12.55Q398.12-18.85 401.19-22.45 404.27-26.05 410.02-26.05L410.02-26.05Q414.17-26.05 416.67-24.18 419.17-22.3 419.17-18.85L419.17-18.85Q419.17-15.15 416.17-13.2 413.17-11.25 407.82-11.25L407.82-11.25Q404.87-11.25 402.42-11.6L402.42-11.6Q402.72-6.55 404.94-4.33 407.17-2.1 410.77-2.1L410.77-2.1Q413.52-2.1 415.52-3.23 417.52-4.35 418.27-6.45L418.27-6.45ZM409.87-24.25Q406.47-24.25 404.44-21.43 402.42-18.6 402.37-13.3L402.37-13.3Q404.77-13.1 406.27-13.05L406.27-13.05Q410.27-13.05 412.59-14.48 414.92-15.9 414.92-19.35L414.92-19.35Q414.92-22 413.47-23.13 412.02-24.25 409.87-24.25L409.87-24.25Z" fill="#ffffff" data-fill-palette-color="secondary"></path></g></svg></g></svg></g></svg></g></svg></g><g><svg viewBox="0 0 54.414702251718424 54.414702251718424" height="54.414702251718424" width="54.414702251718424"><g><svg xmlns="http://www.w3.org/2000/svg" xmlns:xlink="http://www.w3.org/1999/xlink" version="1.1" x="0" y="0" viewBox="2 2 60 60" style="enable-background:new 0 0 64 64;" xml:space="preserve" height="54.414702251718424" width="54.414702251718424" class="icon-icon-0" data-fill-palette-color="accent" id="icon-0"><path d="M57 2H7C4.243 2 2 4.243 2 7v8 36c0 2.757 2.243 5 5 5h1v3c0 1.654 1.346 3 3 3h4c1.654 0 3-1.346 3-3v-3h28v3c0 1.654 1.346 3 3 3h4c1.654 0 3-1.346 3-3v-3h1c2.757 0 5-2.243 5-5V15 7C62 4.243 59.757 2 57 2zM4 7c0-1.654 1.346-3 3-3h50c1.654 0 3 1.346 3 3v7H4V7zM16 59c0 0.551-0.449 1-1 1h-4c-0.551 0-1-0.449-1-1v-3h6V59zM54 59c0 0.551-0.449 1-1 1h-4c-0.551 0-1-0.449-1-1v-3h6V59zM60 51c0 1.654-1.346 3-3 3h-2-8H17 9 7c-1.654 0-3-1.346-3-3V16h56V51z" fill="#ffffff" data-fill-palette-color="accent"></path><path d="M7 52h50c0.552 0 1-0.448 1-1V27c0-0.552-0.448-1-1-1H7c-0.552 0-1 0.448-1 1v24C6 51.552 6.448 52 7 52zM8 28h48v22H8V28z" fill="#ffffff" data-fill-palette-color="accent"></path><polygon points="9,22 55,22 55,24 57,24 57,18 55,18 55,20 9,20 9,18 7,18 7,24 9,24 " fill="#ffffff" data-fill-palette-color="accent"></polygon><path d="M52 6c-1.654 0-3 1.346-3 3s1.346 3 3 3 3-1.346 3-3S53.654 6 52 6zM52 10c-0.551 0-1-0.449-1-1s0.449-1 1-1 1 0.449 1 1S52.551 10 52 10z" fill="#ffffff" data-fill-palette-color="accent"></path><path d="M43 6c-1.654 0-3 1.346-3 3s1.346 3 3 3 3-1.346 3-3S44.654 6 43 6zM43 10c-0.551 0-1-0.449-1-1s0.449-1 1-1 1 0.449 1 1S43.551 10 43 10z" fill="#ffffff" data-fill-palette-color="accent"></path><rect x="8" y="8" width="11" height="2" fill="#ffffff" data-fill-palette-color="accent"></rect><path d="M35 6H23c-0.552 0-1 0.448-1 1v4c0 0.552 0.448 1 1 1h12c0.552 0 1-0.448 1-1V7C36 6.448 35.552 6 35 6zM34 10H24V8h10V10z" fill="#ffffff" data-fill-palette-color="accent"></path><path d="M45 43c0-3.86-3.14-7-7-7h-1.142c-0.447-1.72-2-3-3.858-3h-2c-1.858 0-3.411 1.28-3.858 3H26c-3.86 0-7 3.14-7 7v3h-7v2h8 8 8 8 8v-2h-7V43zM21 43c0-2.757 2.243-5 5-5h1v8h-6V43zM29 37c0-1.103 0.897-2 2-2h2c1.103 0 2 0.897 2 2v9h-6V37zM37 46v-8h1c2.757 0 5 2.243 5 5v3H37z" fill="#ffffff" data-fill-palette-color="accent"></path><path d="M13.848 38.47c-0.37-0.59-0.971-1.817-0.851-3.394 0.086-1.128 0.509-2.005 0.848-2.542l-1.69-1.068c-0.661 1.045-1.059 2.241-1.152 3.458-0.164 2.146 0.65 3.807 1.149 4.606L13.848 38.47z" fill="#ffffff" data-fill-palette-color="accent"></path><path d="M19.848 36.47c-0.37-0.59-0.971-1.817-0.851-3.394 0.086-1.128 0.509-2.005 0.848-2.542l-1.69-1.068c-0.661 1.045-1.059 2.241-1.152 3.458-0.164 2.146 0.65 3.807 1.149 4.606L19.848 36.47z" fill="#ffffff" data-fill-palette-color="accent"></path><path d="M52.845 31.466l-1.69 1.068c0.339 0.537 0.762 1.414 0.848 2.542 0.12 1.577-0.481 2.804-0.851 3.394l1.696 1.061c0.499-0.799 1.312-2.459 1.149-4.606C53.904 33.707 53.506 32.511 52.845 31.466z" fill="#ffffff" data-fill-palette-color="accent"></path><path d="M46.848 37.53c0.499-0.799 1.312-2.459 1.149-4.606-0.093-1.217-0.491-2.413-1.152-3.458l-1.69 1.068c0.339 0.537 0.762 1.414 0.848 2.542 0.12 1.577-0.481 2.804-0.851 3.394L46.848 37.53z" fill="#ffffff" data-fill-palette-color="accent"></path></svg></g></svg></g></svg></g><defs></defs></svg><rect width="395.52" height="45.59034132240193" fill="none" stroke="none" visibility="hidden"></rect></g></svg></g></svg>